<?xml version="1.0"?>
<svg xmlns="http://www.w3.org/2000/svg" height="512px" viewBox="0 0 52 58" width="512px" class=""><g><g id="Page-1" fill="none" fill-rule="evenodd"><g id="119---Rewind" fill-rule="nonzero"><path id="Shape" d="m5.593 15.888c.43959919-.5709227 1.15232297-.8612438 1.86572827-.7599862.71340529.1012577 1.31719318.5784387 1.580562 1.2491376.26336881.670699.14559936 1.4312198-.30829027 1.9908486-3.0807919 3.8740753-4.74949603 8.6823135-4.731 13.632-.00262737 11.8141896 9.3263118 21.5212288 21.1312876 21.9877345 11.8049759.4665058 21.8708273-8.4740955 22.8004919-20.2516507s-7.6088096-22.1866941-19.3407795-23.5780838l2.709 2.323c.8056088.7261278.8856677 1.9620327.180472 2.7860268-.7051957.823994-1.9386364.9357715-2.780472.2519732l-7-6c-.4436324-.37996855-.6989854-.93488888-.6989854-1.519s.255353-1.13903145.6989854-1.519l7-6c.8418356-.68379828 2.0752763-.57202083 2.780472.25197325s.6251368 2.05989891-.180472 2.78602675l-3.017 2.587c14.0091266 1.23487919 24.4970862 13.3852814 23.6722405 27.4245187-.8248456 14.0392373-12.6634783 24.8778879-26.7208276 24.4637808-14.0573493-.4141072-25.23742762-11.9308524-25.2344129-25.9942995-.02138283-5.8502981 1.95135744-11.5332573 5.593-16.112z" fill="#894b9d" data-original="#894B9D" class="" style="fill:#666F78" data-old_color="#894b9d"/><g fill="#b49aca"><path id="Shape" d="m17 16c.8369036-.0004244 1.5850467-.5218866 1.8750614-1.306934.2900146-.7850474.0605671-1.6676541-.5750614-2.212066l-5.227-4.481 5.227-4.481c.8056088-.72612784.8856677-1.96203267.180472-2.78602675s-1.9386364-.93577153-2.780472-.25197325l-7 6c-.4436324.37996855-.6989854.93488888-.6989854 1.519s.255353 1.13903145.6989854 1.519l7 6c.3618231.3107144.8230731.481377 1.3.481z" data-original="#B49ACA" class="active-path" style="fill:#666F78" data-old_color="#B49ACA"/><path id="Shape" d="m21 40h-1v-17c-.0001355-.7374384-.4060631-1.4149703-1.056234-1.7629549-.6501708-.3479847-1.4390817-.3099547-2.052766.0989549l-3 2c-.9035893.5966236-1.1682765 1.8039962-.5971523 2.723915s1.7706234 1.2182631 2.7061523.673085v13.267h-1c-1.1045695 0-2 .8954305-2 2s.8954305 2 2 2h6c1.1045695 0 2-.8954305 2-2s-.8954305-2-2-2z" data-original="#B49ACA" class="active-path" style="fill:#666F78" data-old_color="#B49ACA"/><path id="Shape" d="m34 21h-3c-2.7614237 0-5 2.2385763-5 5v13c0 2.7614237 2.2385763 5 5 5h3c2.7614237 0 5-2.2385763 5-5v-13c0-2.7614237-2.2385763-5-5-5zm1 18c0 .5522847-.4477153 1-1 1h-3c-.5522847 0-1-.4477153-1-1v-13c0-.5522847.4477153-1 1-1h3c.5522847 0 1 .4477153 1 1z" data-original="#B49ACA" class="active-path" style="fill:#666F78" data-old_color="#B49ACA"/></g></g></g></g> </svg>
